<?xml version="1.0" encoding="UTF-8" standalone="no"?>
<!-- Created with Inkscape (http://www.inkscape.org/) -->

<svg
   xmlns:dc="http://purl.org/dc/elements/1.1/"
   xmlns:cc="http://creativecommons.org/ns#"
   xmlns:rdf="http://www.w3.org/1999/02/22-rdf-syntax-ns#"
   xmlns:svg="http://www.w3.org/2000/svg"
   xmlns="http://www.w3.org/2000/svg"
   xmlns:sodipodi="http://sodipodi.sourceforge.net/DTD/sodipodi-0.dtd"
   xmlns:inkscape="http://www.inkscape.org/namespaces/inkscape"
   width="50"
   height="64"
   viewBox="0 0 13.229166 16.933334"
   version="1.1"
   id="svg4626"
   inkscape:version="0.92.4 (5da689c313, 2019-01-14)"
   sodipodi:docname="evfs.svg">
  <defs
     id="defs4620" />
  <sodipodi:namedview
     id="base"
     pagecolor="#ffffff"
     bordercolor="#666666"
     borderopacity="1.0"
     inkscape:pageopacity="0.0"
     inkscape:pageshadow="2"
     inkscape:zoom="7.9195959"
     inkscape:cx="74.783884"
     inkscape:cy="24.075503"
     inkscape:document-units="px"
     inkscape:current-layer="layer1"
     showgrid="true"
     units="px"
     showguides="true"
     inkscape:guide-bbox="true"
     inkscape:snap-grids="true"
     inkscape:window-width="2560"
     inkscape:window-height="1376"
     inkscape:window-x="0"
     inkscape:window-y="27"
     inkscape:window-maximized="1">
    <inkscape:grid
       type="xygrid"
       id="grid4628"
       empspacing="4"
       spacingx="0.13229167"
       spacingy="0.13229167" />
    <sodipodi:guide
       position="6.614583,11.641667"
       orientation="1,0"
       id="guide4630"
       inkscape:locked="false" />
  </sodipodi:namedview>
  <metadata
     id="metadata4623">
    <rdf:RDF>
      <cc:Work
         rdf:about="">
        <dc:format>image/svg+xml</dc:format>
        <dc:type
           rdf:resource="http://purl.org/dc/dcmitype/StillImage" />
        <dc:title></dc:title>
      </cc:Work>
    </rdf:RDF>
  </metadata>
  <g
     inkscape:label="Layer 1"
     inkscape:groupmode="layer"
     id="layer1"
     transform="translate(0,-280.06665)">
    <path
       sodipodi:nodetypes="cccssc"
       inkscape:connector-curvature="0"
       id="path5218"
       d="M 20.372917,294.88332 H 17.4625 c -0.529166,-1.5875 -1.058333,-4.7625 -1.058333,-6.35 0,-1.05833 0.763055,-1.96248 1.537387,-2.84091 0.446621,-0.50667 0.05997,-1.30078 0.05011,-2.64583 -0.0066,-0.89663 1.058333,-2.18618 2.38125,-2.18618"
       style="fill:none;stroke:#800080;stroke-width:0.52916664;stroke-linecap:butt;stroke-linejoin:round;stroke-miterlimit:4;stroke-dasharray:none;stroke-opacity:1" />
    <g
       id="g5322"
       inkscape:export-xdpi="96"
       inkscape:export-ydpi="96"
       transform="translate(-21.695841,-1.0583333)">
      <path
         inkscape:connector-curvature="0"
         style="fill:#ccaaff;stroke:none;stroke-width:0.52916664;stroke-linecap:butt;stroke-linejoin:round;stroke-miterlimit:4;stroke-dasharray:none;stroke-opacity:1"
         d="m 28.310422,281.38957 c -1.322917,0 -2.38782,1.2898 -2.38125,2.18643 0.0099,1.34505 0.396495,2.13916 -0.05013,2.64583 -0.774332,0.87843 -1.537374,1.78232 -1.537374,2.84065 0,1.5875 0.529166,4.7625 1.058333,6.35 h 2.910417 2.910416 c 0.529167,-1.5875 1.058334,-4.7625 1.058334,-6.35 0,-1.05833 -0.763042,-1.96222 -1.537374,-2.84065 -0.446621,-0.50667 -0.05998,-1.30078 -0.05013,-2.64583 0.0066,-0.89663 -1.058334,-2.18643 -2.38125,-2.18643 z"
         id="path5288"
         inkscape:export-xdpi="96"
         inkscape:export-ydpi="96" />
      <path
         inkscape:export-ydpi="96"
         inkscape:export-xdpi="96"
         id="path5296"
         transform="matrix(0.26458333,0,0,0.26458333,0,280.06665)"
         d="m 108.39062,5.1386719 c 2.20099,1.8589939 3.62421,4.5818074 3.60938,6.7480471 -0.0372,5.467313 -1.49856,8.696357 0.18945,10.755859 C 115.11606,26.213211 118,29.887595 118,34.189453 118,40.044261 116.35179,51.16056 114.55273,58 H 118 c 2,-6 4,-18 4,-24 0,-3.999987 -2.88394,-7.416278 -5.81055,-10.736328 -1.68801,-1.914973 -0.22668,-4.916347 -0.18945,-10 0.0226,-3.067446 -3.27601,-7.339835 -7.60938,-8.1250001 z"
         style="opacity:0.56600001;fill:#808080;stroke:none;stroke-width:1.99999988;stroke-linecap:butt;stroke-linejoin:round;stroke-miterlimit:4;stroke-dasharray:none;stroke-opacity:1"
         inkscape:connector-curvature="0" />
      <path
         inkscape:export-ydpi="96"
         inkscape:export-xdpi="96"
         sodipodi:nodetypes="ccccc"
         inkscape:connector-curvature="0"
         id="path5305"
         d="m 28.125569,282.00596 c 0.126796,0.1317 -0.306254,0.2452 -0.691091,0.56835 -0.384843,0.32315 -0.575739,0.73358 -0.702528,0.60186 -0.126794,-0.13171 0.08239,-0.50045 0.46724,-0.82359 0.384842,-0.32316 0.799597,-0.47834 0.926379,-0.34662 z"
         style="opacity:1;fill:#f2f2f2;fill-opacity:1;stroke:none;stroke-width:0.79374999;stroke-linejoin:round;stroke-miterlimit:4;stroke-dasharray:none" />
      <path
         inkscape:export-ydpi="96"
         inkscape:export-xdpi="96"
         style="opacity:1;fill:#f2f2f2;fill-opacity:1;stroke:none;stroke-width:0.79374999;stroke-linejoin:round;stroke-miterlimit:4;stroke-dasharray:none"
         d="m 26.669852,286.7615 c 0.808354,0.074 0.498194,0.33838 0.174598,0.42533 -0.443025,0.11905 -0.852687,0.41584 -1.014012,0.64958 -0.400326,0.58003 -0.457026,1.16934 -0.660392,1.02552 -0.203369,-0.14377 -0.04371,-0.73055 0.356628,-1.31057 0.400323,-0.58005 0.570377,-0.84231 1.143178,-0.78986 z"
         id="path5308"
         inkscape:connector-curvature="0"
         sodipodi:nodetypes="sssccs" />
    </g>
    <path
       inkscape:connector-curvature="0"
       style="fill:none;stroke:#aa00d4;stroke-width:0.52916664;stroke-linecap:butt;stroke-linejoin:round;stroke-miterlimit:4;stroke-dasharray:none;stroke-opacity:1"
       d="m 6.6145771,280.33123 c -1.3229164,0 -2.3878188,1.2898 -2.3812488,2.18643 0.0099,1.34505 0.396495,2.13916 -0.05013,2.64583 -0.7743314,0.87843 -1.5373731,1.78232 -1.5373731,2.84065 0,1.5875 0.5291657,4.7625 1.0583324,6.35 h 2.9104155 2.9104142 c 0.5291667,-1.5875 1.0583337,-4.7625 1.0583337,-6.35 0,-1.05833 -0.7630417,-1.96222 -1.5373734,-2.84065 -0.4466207,-0.50667 -0.05998,-1.30078 -0.05013,-2.64583 0.0066,-0.89663 -1.0583334,-2.18643 -2.3812485,-2.18643 z"
       id="path5301"
       inkscape:export-xdpi="96"
       inkscape:export-ydpi="96" />
    <path
       style="opacity:1;fill:none;stroke:#660080;stroke-width:1.05833328;stroke-linecap:butt;stroke-linejoin:round;stroke-miterlimit:4;stroke-dasharray:none;stroke-opacity:1"
       d="m 0.15657178,288.79789 c 0.103557,2.0166 0.56960166,4.57014 1.16323532,6.35104 0.3312667,0.99229 1.3387911,1.71659 2.3848665,1.71669 h 2.9098985 2.9083482 c 1.0467497,7.7e-4 2.0554657,-0.7238 2.3869327,-1.71669 0.593635,-1.7809 1.05968,-4.33444 1.163238,-6.35104"
       id="path5356"
       inkscape:connector-curvature="0"
       sodipodi:nodetypes="ccccccc"
       inkscape:export-xdpi="96"
       inkscape:export-ydpi="96" />
    <path
       style="fill:#000000;fill-opacity:0;stroke:#8800aa;stroke-width:0.79374999;stroke-linecap:butt;stroke-linejoin:round;stroke-miterlimit:4;stroke-dasharray:none;stroke-opacity:1"
       d="m 10.528543,294.68797 c 0.595995,-1.78798 1.111559,-4.86123 1.111559,-6.68383 m -10.0505442,0 c 0,1.8226 0.5150477,4.89585 1.1110434,6.68383 0.144276,0.43185 0.5487607,0.72288 1.0040724,0.72244 h 2.9098985 2.9104142 c 0.455123,2.2e-4 0.8593397,-0.29077 1.0035567,-0.72244"
       id="path5330"
       inkscape:connector-curvature="0"
       sodipodi:nodetypes="cccccccc"
       inkscape:export-xdpi="96"
       inkscape:export-ydpi="96" />
  </g>
</svg>
